<svg viewBox="0 0 32 32" xmlns="http://www.w3.org/2000/svg" xmlns:xlink="http://www.w3.org/1999/xlink" overflow="hidden"><path d="M8.656 3C8.133 3 7.616 3.19 7.186 3.53L7.126 3.563 7.094 3.593 3.969 6.813 3.999 6.843C3.036 7.735 2.736 9.067 3.155 10.219 3.157 10.224 3.153 10.243 3.155 10.249 4.002 12.677 6.172 17.359 10.405 21.593 14.655 25.843 19.402 27.923 21.749 28.843L21.779 28.843C22.996 29.248 24.311 28.959 25.249 28.155L25.279 28.125 25.311 28.093 28.407 25C29.237 24.17 29.237 22.736 28.407 21.906L24.345 17.844 24.313 17.781C23.483 16.951 22.018 16.951 21.188 17.781L21.158 17.813 19.188 19.783C18.465 19.436 16.742 18.543 15.095 16.97 13.459 15.407 12.621 13.61 12.315 12.906L14.313 10.906C15.155 10.064 15.168 8.67 14.283 7.844L14.313 7.812 14.22 7.719 10.22 3.593 10.187 3.563 10.125 3.53C9.697 3.19 9.18 3 8.655 3ZM8.656 5C8.73 5 8.803 5.036 8.876 5.094L12.876 9.187 12.938 9.25 12.968 9.28C12.961 9.275 13.028 9.377 12.906 9.5L10.406 12 9.936 12.438 10.156 13.062C10.156 13.062 11.306 16.135 13.719 18.438L13.936 18.625C16.26 20.747 19 21.905 19 21.905L19.625 22.187 20.095 21.719 22.595 19.219C22.765 19.049 22.735 19.049 22.905 19.219L27 23.312C27.17 23.482 27.17 23.422 27 23.592L23.937 26.655C23.477 27.051 22.99 27.131 22.407 26.937 20.139 26.047 15.737 24.11 11.812 20.187 7.857 16.23 5.79 11.74 5.032 9.563 4.879 9.156 4.989 8.553 5.344 8.25L5.374 8.22 5.406 8.187 8.438 5.094C8.51 5.036 8.582 5 8.655 5Z" fill="#A6A6A6"/></svg>